Coordinates
version=1
nRows=13
nColumns=40
inDegrees=yes

Units are S.I. units (second, meters, Newtons, ...)
Angles are in degrees.

endheader
time	pelvis_tilt	pelvis_list	pelvis_rotation	pelvis_tx	pelvis_ty	pelvis_tz	hip_flexion_r	hip_adduction_r	hip_rotation_r	knee_angle_r	knee_angle_r_beta	ankle_angle_r	subtalar_angle_r	mtp_angle_r	hip_flexion_l	hip_adduction_l	hip_rotation_l	knee_angle_l	knee_angle_l_beta	ankle_angle_l	subtalar_angle_l	mtp_angle_l	lumbar_extension	lumbar_bending	lumbar_rotation	arm_flex_r	arm_add_r	arm_rot_r	elbow_flex_r	pro_sup_r	wrist_flex_r	wrist_dev_r	arm_flex_l	arm_add_l	arm_rot_l	elbow_flex_l	pro_sup_l	wrist_flex_l	wrist_dev_l
     30.59000000	     -6.96992468	     -3.90145144	      0.76162647	      0.71157215	      0.92963254	      0.49976815	     17.23157037	      1.90087092	    -15.25545668	     18.74141359	     18.74141359	      9.25021955	      0.75602330	     -0.85890952	     28.30319609	    -10.98665373	      0.67769161	     60.22650002	     60.22650002	     10.52286555	    -18.23257506	     11.28253262	    -10.21044696	      5.43473528	      1.27273526	     10.12797885	    -20.12291983	     -4.57737177	     64.70295548	     45.62384543	      0.00000000	      0.00000000	      3.66622980	     -8.71777454	     -7.16715933	     41.11908126	     45.54742474	      0.00000000	      0.00000000
     30.60278571	     -7.04426976	     -3.86359640	      0.89820006	      0.70991824	      0.93021996	      0.50019847	     16.73081726	      1.92934471	    -15.33575524	     18.32716169	     18.32716169	      9.36722815	      0.95391211	     -0.87359194	     29.33518812	    -11.01318860	      0.49805680	     58.31307654	     58.31307654	     10.81377565	    -18.35574592	     11.58761816	    -10.31818367	      5.37278536	      1.22293500	     12.27822954	    -20.14125900	     -4.69952603	     65.85797176	     45.59638618	      0.00000000	      0.00000000	      2.68602055	     -8.64926027	     -7.03927270	     39.64139228	     45.52880156	      0.00000000	      0.00000000
     30.61557143	     -7.12402895	     -3.85662063	      1.03406293	      0.70830504	      0.93067050	      0.50059333	     16.25711552	      1.99506083	    -15.39914915	     17.95256290	     17.95256290	      9.50090029	      1.03149581	     -0.89956135	     30.23472283	    -11.05848065	      0.27614046	     56.17183789	     56.17183789	     11.04054691	    -18.42404085	     11.91153350	    -10.38968385	      5.35432134	      1.24872766	     14.42589024	    -20.29483832	     -4.65891893	     66.93277742	     45.56580020	      0.00000000	      0.00000000	      1.89124565	     -8.52597788	     -6.87112195	     37.87879397	     45.51043095	      0.00000000	      0.00000000
     30.62835714	     -7.31686169	     -3.91214922	      1.14733203	      0.70661169	      0.93074059	      0.50095104	     16.03408216	      2.09513470	    -15.43943984	     17.80416651	     17.80416651	      9.68119066	      1.01703429	     -0.95803396	     31.16491057	    -11.14341240	      0.06040630	     53.86970818	     53.86970818	     11.22359873	    -18.32961646	     12.17328208	    -10.33002733	      5.38158035	      1.87331783	     16.10815597	    -20.85734693	     -4.88452696	     67.57749693	     45.55974616	      0.00000000	      0.00000000	      1.07312264	     -8.29107525	     -6.79604314	     37.24939604	     45.49188090	      0.00000000	      0.00000000
     30.64114286	     -7.33226645	     -3.85354671	      1.30143467	      0.70509756	      0.93115033	      0.50105802	     15.37169560	      2.11915647	    -15.51835028	     17.19190829	     17.19190829	      9.80375433	      1.24453780	     -1.03250548	     31.69981851	    -10.97198794	     -0.08354299	     51.25442360	     51.25442360	     11.28745773	    -18.41649932	     12.64536920	    -10.44046703	      5.36779960	      1.48855901	     18.64003643	    -20.83881543	     -4.06513438	     68.56486969	     45.50355014	      0.00000000	      0.00000000	      0.90753749	     -8.20995598	     -6.33570563	     33.29588387	     45.47275207	      0.00000000	      0.00000000
     30.65392857	     -7.39799784	     -3.82238022	      1.42080495	      0.70356995	      0.93121671	      0.50111166	     14.88155977	      2.15843425	    -15.48948951	     16.79863875	     16.79863875	     10.02474491	      1.28340680	     -1.05093673	     32.18959792	    -10.81345188	     -0.24461961	     48.49214698	     48.49214698	     11.34681394	    -18.32440877	     12.99581972	    -10.52887913	      5.33247742	      1.75469340	     20.50772596	    -21.04347601	     -4.25996011	     69.50579763	     45.48648160	      0.00000000	      0.00000000	      0.07838194	     -8.10010041	     -6.24012608	     32.48722916	     45.45615628	      0.00000000	      0.00000000
     30.66671429	     -7.48018652	     -3.84339721	      1.56571241	      0.70207958	      0.93104260	      0.50099592	     14.38600719	      2.24242315	    -15.52711705	     16.36860918	     16.36860918	     10.28054351	      1.38070594	     -1.10081796	     32.63429216	    -10.63257272	     -0.29432520	     45.61802421	     45.61802421	     11.36173424	    -18.11287871	     13.26123022	    -10.55551425	      5.37325820	      1.85256653	     22.42626918	    -21.10649774	     -4.36150569	     70.50913830	     45.46419095	      0.00000000	      0.00000000	     -0.75221224	     -8.02041626	     -6.08031321	     31.51086965	     45.43067817	      0.00000000	      0.00000000
     30.67950000	     -7.54901982	     -3.89145216	      1.72731052	      0.70064084	      0.93068014	      0.50071588	     13.86286120	      2.34375570	    -15.60604608	     15.91942377	     15.91942377	     10.56130958	      1.52275984	     -1.19092549	     32.98229642	    -10.41497078	     -0.26495260	     42.63039748	     42.63039748	     11.34219214	    -17.78800107	     13.35801706	    -10.58776749	      5.46623004	      1.84520550	     24.33309710	    -21.07222254	     -4.34528583	     71.52412627	     45.43727212	      0.00000000	      0.00000000	     -1.54093131	     -7.97146701	     -5.84903354	     30.43976380	     45.39696158	      0.00000000	      0.00000000
     30.69228571	     -7.64173305	     -4.01450022	      1.91444027	      0.69920737	      0.93000662	      0.50026254	     13.35980366	      2.50425135	    -15.76444582	     15.46624306	     15.46624306	     10.88043029	      1.74150377	     -1.39837950	     33.33578005	    -10.21987042	     -0.12675237	     39.63300799	     39.63300799	     11.16801093	    -17.30494497	     12.93646925	    -10.55288017	      5.66847760	      1.77820044	     26.29673427	    -21.03454186	     -4.10217636	     72.51502848	     45.40344887	      0.00000000	      0.00000000	     -2.26556021	     -7.91230753	     -5.42340578	     29.18900186	     45.34358262	      0.00000000	      0.00000000
     30.70507143	     -7.73826256	     -4.05471646	      2.05036049	      0.69786950	      0.92918836	      0.49974941	     12.91330139	      2.58287237	    -15.75216674	     15.13410675	     15.13410675	     11.27554994	      1.80153146	     -1.57325808	     33.59355130	     -9.95355422	     -0.07110595	     36.61989925	     36.61989925	     11.21238292	    -16.49265236	     12.89379265	    -10.48732268	      5.73883909	      2.00189216	     27.94292696	    -21.11861513	     -4.11572300	     73.37502622	     45.38268096	      0.00000000	      0.00000000	     -3.00522431	     -7.86830078	     -5.21823087	     28.61423685	     45.30952381	      0.00000000	      0.00000000
     30.71785714	     -7.78961091	     -4.23676872	      2.24312667	      0.69666219	      0.92820160	      0.49910943	     12.34105863	      2.81135579	    -15.89407480	     14.65681494	     14.65681494	     11.54719233	      1.96619015	     -2.03696675	     33.77372408	     -9.79903030	      0.07646119	     33.60869620	     33.60869620	     10.73278023	    -15.63283710	     11.41742592	    -10.45248455	      5.99671230	      1.84687320	     29.77071848	    -20.97790674	     -3.59510072	     74.55692224	     45.33440488	      0.00000000	      0.00000000	     -3.88707882	     -7.90279056	     -4.34283374	     27.87542225	     45.19400076	      0.00000000	      0.00000000
     30.73064286	     -7.83447041	     -4.35934917	      2.38900477	      0.69550084	      0.92714325	      0.49842753	     11.87922375	      2.96518880	    -15.85444345	     14.42397123	     14.42397123	     12.02132681	      1.92569185	     -2.25869852	     33.93729502	     -9.60232731	      0.14659648	     30.82705027	     30.82705027	     10.80175568	    -14.50496068	     11.48834138	    -10.41653142	      6.11734933	      2.04750527	     31.26960154	    -20.96880992	     -3.69217765	     75.44620603	     45.31542761	      0.00000000	      0.00000000	     -4.62260868	     -7.87284374	     -4.14296752	     27.60350692	     45.15803671	      0.00000000	      0.00000000
     30.74342857	     -7.89523645	     -4.54219898	      2.54807417	      0.69448219	      0.92596464	      0.49766447	     11.43143993	      3.17597653	    -15.86672735	     14.19720790	     14.19720790	     12.47698290	      1.88005023	     -2.47762259	     34.14114632	     -9.45844518	      0.23556338	     28.29653961	     28.29653961	     10.89242792	    -13.32028014	     11.56352423	    -10.33421458	      6.31230874	      2.16593890	     32.73075445	    -20.84502630	     -3.74291044	     76.42554948	     45.29173340	      0.00000000	      0.00000000	     -5.34265051	     -7.79901287	     -3.95422345	     27.36083845	     45.12144874	      0.00000000	      0.00000000
